<svg width="180" height="180" viewBox="0 0 180 180" fill="none" xmlns="http://www.w3.org/2000/svg">
<g clip-path="url(#clip0_1839_83257)">
<rect width="208" height="208" transform="translate(-14 -14)" fill="#FAF3EA"/>
<path d="M121.084 57.9216C121.084 65.3296 127.145 71.3906 134.553 71.3906C141.961 71.3906 148.022 65.3296 148.022 57.9216C148.022 50.5137 141.961 44.4526 134.553 44.4526C127.145 44.4526 121.084 50.5137 121.084 57.9216ZM115.427 139.544V139.409C115.427 136.581 117.044 134.83 120.815 133.617C124.586 132.27 125.529 131.328 125.529 126.344V101.696C125.529 96.7123 124.182 96.0389 120.411 94.8267C117.313 93.8838 115.427 92.4022 115.427 90.1125C115.427 88.2269 116.64 86.7453 118.39 86.0718L137.921 79.0679C142.231 77.4517 145.598 79.6067 145.598 83.5127V126.344C145.598 131.328 146.541 132.27 150.312 133.617C154.083 134.83 155.7 136.581 155.7 139.409V139.544C155.7 142.238 153.545 144.123 150.312 144.123H120.815C117.582 144.123 115.427 142.238 115.427 139.544ZM65.0531 68.4274C65.0531 51.1871 67.4775 45.5302 74.8855 45.5302C83.9097 45.5302 89.1627 54.285 89.1627 69.2356C89.1627 84.1862 84.0444 93.2104 75.6936 93.2104C67.3428 93.2104 65.0531 86.6106 65.0531 68.4274ZM27.2051 139.409V139.544C27.2051 142.238 29.3601 144.123 32.5927 144.123H76.7711C80.0037 144.123 82.1588 142.238 82.1588 139.544V139.409C82.1588 136.85 80.6772 134.964 76.9058 134.156C67.4775 132.001 66.2653 131.058 66.2653 125.805V106.545C66.2653 104.12 67.3428 102.504 69.6326 102.504C71.9223 102.504 73.808 103.582 77.9834 103.582C99.8032 103.582 115.293 89.035 115.293 68.5621C115.293 48.0893 100.746 34.8896 80.0037 34.8896C68.6897 34.8896 60.3389 39.065 49.429 39.065H32.5927C29.3601 39.065 27.2051 40.9507 27.2051 43.6445V43.7792C27.2051 46.6077 28.8214 48.3586 32.5927 49.3015C39.3272 50.9177 40.27 51.8606 40.27 56.8441V126.344C40.27 131.328 39.3272 132.27 32.5927 133.887C28.8214 134.83 27.2051 136.581 27.2051 139.409Z" fill="#038247"/>
</g>
<defs>
<clipPath id="clip0_1839_83257">
<rect width="180" height="180" rx="45" fill="white"/>
</clipPath>
</defs>
</svg>
